<svg width="22" height="21" viewBox="0 0 22 21" fill="none" xmlns="http://www.w3.org/2000/svg">
<path d="M19.0961 7.10073L18.7299 6.89701C18.673 6.86537 18.6445 6.84949 18.6171 6.83304C18.344 6.66946 18.114 6.44303 17.946 6.17262C17.9291 6.14541 17.9125 6.11729 17.8799 6.0609L17.8798 6.06069C17.8473 6.00436 17.8309 5.97604 17.8158 5.94779C17.6651 5.66647 17.584 5.35321 17.5792 5.03412C17.5787 5.00533 17.5792 4.97587 17.5801 4.92302L17.5804 4.90397L17.5875 4.48697C17.599 3.80094 17.6047 3.45798 17.5087 3.15042C17.4237 2.87834 17.2818 2.6275 17.092 2.41483C16.8778 2.17484 16.5809 2.00374 15.9885 1.66234L15.9854 1.66057L15.4916 1.37601C14.8987 1.03438 14.6022 0.863636 14.2875 0.798494C14.009 0.740865 13.7215 0.743169 13.444 0.805452C13.1312 0.875675 12.8387 1.05083 12.2547 1.40055L12.2502 1.40323L11.8964 1.61509C11.8404 1.64859 11.8121 1.6653 11.7841 1.68089C11.5058 1.83561 11.1946 1.9217 10.8764 1.93192C10.8443 1.93295 10.8117 1.93295 10.7465 1.93295H10.7456C10.6808 1.93295 10.6486 1.93295 10.6166 1.93192C10.2976 1.92166 9.98549 1.83518 9.70678 1.67982C9.67971 1.66473 9.65281 1.64858 9.60073 1.61731L9.59472 1.61371L9.23864 1.39993L9.23596 1.39833C8.64839 1.04558 8.35433 0.869038 8.03991 0.798494C7.76134 0.735992 7.47239 0.733897 7.19292 0.792269C6.87702 0.858252 6.57962 1.03083 5.98509 1.37589L5.49743 1.65892C4.90599 2.00218 4.6107 2.17374 4.39733 2.4139C4.20857 2.62636 4.06719 2.87662 3.98274 3.14798C3.88728 3.45472 3.89266 3.79664 3.90417 4.48038L3.91131 4.90504C3.9124 4.96935 3.91312 5.00152 3.91265 5.03315C3.90791 5.35289 3.82649 5.66682 3.67538 5.94864C3.66044 5.97651 3.64433 6.00438 3.61218 6.06006C3.57999 6.11577 3.56392 6.14356 3.54723 6.17044C3.37851 6.44229 3.14703 6.66979 2.87223 6.83365C2.84505 6.84986 2.81714 6.86545 2.76085 6.89664L2.39929 7.09701L2.39916 7.09708C1.79768 7.4304 1.49699 7.59703 1.27819 7.83443C1.08462 8.04446 0.938046 8.29353 0.848784 8.56485C0.748015 8.87115 0.748795 9.21456 0.750354 9.90053L0.75036 9.90323L0.751637 10.4654L0.75165 10.4714C0.753192 11.1506 0.753965 11.491 0.854791 11.7947C0.944257 12.0642 1.0901 12.3115 1.28259 12.5203C1.49993 12.756 1.79821 12.9219 2.39392 13.2533L2.39587 13.2544L2.75421 13.4538L2.75918 13.4565C2.81688 13.4886 2.84663 13.5052 2.87523 13.5224C3.14755 13.6864 3.37653 13.913 3.54382 14.1833C3.56188 14.2125 3.57923 14.2428 3.6139 14.3033L3.61393 14.3034C3.6482 14.3632 3.66553 14.3932 3.68137 14.4232C3.82805 14.7009 3.90731 15.0092 3.91266 15.3232C3.91324 15.3571 3.9127 15.3916 3.91154 15.4606L3.90466 15.8681L3.90463 15.8696C3.89307 16.5547 3.88728 16.8974 3.98323 17.2048C4.06817 17.4769 4.21048 17.7277 4.40026 17.9403C4.61479 18.1808 4.9117 18.3521 5.50622 18.6947L5.99992 18.9792C6.59278 19.3209 6.88964 19.4916 7.20438 19.5567C7.48282 19.6144 7.77028 19.612 8.04772 19.5497C8.36066 19.4795 8.65328 19.3043 9.23784 18.9542L9.24157 18.952L9.5954 18.7401C9.65137 18.7066 9.67954 18.6899 9.70758 18.6743C9.98586 18.5196 10.2969 18.4335 10.6151 18.4233C10.6472 18.4223 10.6798 18.4223 10.745 18.4223C10.8104 18.4223 10.8436 18.4223 10.8757 18.4233C11.1946 18.4336 11.5063 18.52 11.785 18.6753C11.8131 18.691 11.8413 18.7078 11.8973 18.7415L12.2534 18.9553L12.2541 18.9556C12.843 19.3092 13.1374 19.486 13.4522 19.5566C13.7308 19.6191 14.0192 19.6213 14.2987 19.563C14.6146 19.497 14.9122 19.3244 15.5067 18.9794L15.9944 18.6963C16.5858 18.3531 16.8812 18.1815 17.0945 17.9413C17.2833 17.7289 17.4247 17.4786 17.5091 17.2073C17.6046 16.9005 17.5991 16.5586 17.5876 15.8749L17.5804 15.4502L17.5801 15.4287C17.5792 15.3783 17.5787 15.3501 17.5791 15.3222C17.5839 15.0024 17.6652 14.6884 17.8163 14.4066C17.8312 14.3788 17.8473 14.3509 17.8794 14.2954L17.8795 14.2952C17.9117 14.2395 17.928 14.2116 17.9447 14.1847C18.1135 13.9129 18.3447 13.6855 18.6195 13.5216C18.6458 13.506 18.6731 13.4908 18.7258 13.4616L18.7313 13.4586L19.0929 13.2582C19.6944 12.9248 19.995 12.7582 20.2138 12.5208C20.4074 12.3108 20.5537 12.0617 20.6429 11.7904C20.7438 11.4837 20.7434 11.1398 20.7419 10.4521L20.7406 9.88993C20.739 9.20675 20.7382 8.86508 20.6371 8.56046C20.5476 8.29096 20.4016 8.04365 20.2092 7.83489C19.9916 7.59892 19.6931 7.43285 19.0961 7.10073Z" stroke="white" stroke-width="1.5" stroke-linecap="round" stroke-linejoin="round"/>
</svg>
