<svg width="17" height="17" viewBox="0 0 17 17" fill="none" xmlns="http://www.w3.org/2000/svg">
<g clip-path="url(#clip0_9493_23196)">
<path d="M14.875 4.236C12.5162 4.00225 10.1433 3.88184 7.7775 3.88184C6.375 3.88184 4.9725 3.95267 3.57 4.09434L2.125 4.236" stroke="#DF3F3F" stroke-width="1.5" stroke-linecap="round" stroke-linejoin="round"/>
<path d="M6.02087 3.52074L6.17671 2.59283C6.29004 1.91991 6.37504 1.41699 7.57212 1.41699H9.42796C10.625 1.41699 10.7171 1.94824 10.8234 2.59991L10.9792 3.52074" stroke="#DF3F3F" stroke-width="1.5" stroke-linecap="round" stroke-linejoin="round"/>
<path d="M13.3521 6.47461L12.8917 13.6075C12.8138 14.7196 12.75 15.5838 10.7738 15.5838H6.22628C4.25003 15.5838 4.18628 14.7196 4.10837 13.6075L3.64795 6.47461" stroke="#DF3F3F" stroke-width="1.5" stroke-linecap="round" stroke-linejoin="round"/>
<path d="M7.31714 11.6875H9.67589" stroke="#DF3F3F" stroke-width="1.5" stroke-linecap="round" stroke-linejoin="round"/>
<path d="M6.72913 8.85449H10.2708" stroke="#DF3F3F" stroke-width="1.5" stroke-linecap="round" stroke-linejoin="round"/>
</g>
<defs>
<clipPath id="clip0_9493_23196">
<rect width="17" height="17" fill="white"/>
</clipPath>
</defs>
</svg>
