<svg width="62" height="59" viewBox="0 0 62 59" fill="none" xmlns="http://www.w3.org/2000/svg">
<rect x="58.1504" y="55" width="55" height="55" rx="27.5" transform="rotate(180 58.1504 55)" fill="url(#paint0_linear_9504_36477)"/>
<mask id="mask0_9504_36477" style="mask-type:alpha" maskUnits="userSpaceOnUse" x="6" y="3" width="49" height="49">
<rect x="54.5059" y="51.6865" width="48.3735" height="48.3735" transform="rotate(180 54.5059 51.6865)" fill="#C4C4C4"/>
</mask>
<g mask="url(#mask0_9504_36477)">
<path d="M15.3823 28.2852C15.7322 24.2431 18.8784 21.1572 22.6099 21.1572C26.3413 21.1573 29.4885 24.2431 29.8384 28.2852L15.3823 28.2852Z" fill="white" stroke="url(#paint1_linear_9504_36477)" stroke-width="1.5"/>
<path d="M45.8608 29.1689C45.511 33.211 42.3648 36.2969 38.6333 36.2969C34.9019 36.2968 31.7546 33.211 31.4048 29.1689L45.8608 29.1689Z" fill="white" stroke="url(#paint2_linear_9504_36477)" stroke-width="1.5"/>
<path d="M30.7554 12.5674C34.4135 12.9428 37.2671 16.0327 37.2671 19.79C37.267 23.5473 34.4135 26.6383 30.7554 27.0137L30.7554 12.5674Z" fill="white" stroke="url(#paint3_linear_9504_36477)" stroke-width="1.5"/>
<path d="M29.8711 43.0361C26.213 42.6607 23.3594 39.5708 23.3594 35.8135C23.3594 32.0562 26.213 28.9652 29.8711 28.5898V43.0361Z" fill="white" stroke="url(#paint4_linear_9504_36477)" stroke-width="1.5"/>
<foreignObject x="16.877" y="14.6738" width="28.3726" height="28.1055"><div xmlns="http://www.w3.org/1999/xhtml" style="backdrop-filter:blur(2.25px);clip-path:url(#bgblur_0_9504_36477_clip_path);height:100%;width:100%"></div></foreignObject><g filter="url(#filter0_i_9504_36477)" data-figma-bg-blur-radius="4.5">
<path d="M32.2281 30.671L30.3132 38.2793L28.0791 30.671L21.3769 28.9803L28.0791 26.6133L30.3132 19.1741L32.2281 26.6133L39.2495 28.9803L32.2281 30.671Z" fill="url(#paint5_linear_9504_36477)"/>
</g>
<foreignObject x="14.2856" y="11.8818" width="33.6685" height="33.749"><div xmlns="http://www.w3.org/1999/xhtml" style="backdrop-filter:blur(2.25px);clip-path:url(#bgblur_1_9504_36477_clip_path);height:100%;width:100%"></div></foreignObject><g filter="url(#filter1_i_9504_36477)" data-figma-bg-blur-radius="4.5">
<path d="M32.2281 30.671L30.3132 38.2793L28.0791 30.671L21.3769 28.9803L28.0791 26.6133L30.3132 19.1741L32.2281 26.6133L39.2495 28.9803L32.2281 30.671Z" fill="url(#paint6_linear_9504_36477)"/>
<path d="M32.2281 30.671L30.3132 38.2793L28.0791 30.671L21.3769 28.9803L28.0791 26.6133L30.3132 19.1741L32.2281 26.6133L39.2495 28.9803L32.2281 30.671Z" stroke="url(#paint7_linear_9504_36477)" stroke-width="1.5"/>
</g>
</g>
<path d="M0.5 25.1807V27.8313C0.5 44.483 13.9989 57.9819 30.6506 57.9819C47.3023 57.9819 60.8012 44.483 60.8012 27.8313V25.1807" stroke="url(#paint8_linear_9504_36477)"/>
<defs>
<filter id="filter0_i_9504_36477" x="16.877" y="14.6738" width="28.3726" height="28.1055" filterUnits="userSpaceOnUse" color-interpolation-filters="sRGB">
<feFlood flood-opacity="0" result="BackgroundImageFix"/>
<feBlend mode="normal" in="SourceGraphic" in2="BackgroundImageFix" result="shape"/>
<feColorMatrix in="SourceAlpha" type="matrix" values="0 0 0 0 0 0 0 0 0 0 0 0 0 0 0 0 0 0 127 0" result="hardAlpha"/>
<feOffset dx="6" dy="1.5"/>
<feGaussianBlur stdDeviation="4.5"/>
<feComposite in2="hardAlpha" operator="arithmetic" k2="-1" k3="1"/>
<feColorMatrix type="matrix" values="0 0 0 0 0.211765 0 0 0 0 0.352941 0 0 0 0 1 0 0 0 0.25 0"/>
<feBlend mode="normal" in2="shape" result="effect1_innerShadow_9504_36477"/>
</filter>
<clipPath id="bgblur_0_9504_36477_clip_path" transform="translate(-16.877 -14.6738)"><path d="M32.2281 30.671L30.3132 38.2793L28.0791 30.671L21.3769 28.9803L28.0791 26.6133L30.3132 19.1741L32.2281 26.6133L39.2495 28.9803L32.2281 30.671Z"/>
</clipPath><filter id="filter1_i_9504_36477" x="14.2856" y="11.8818" width="33.6685" height="33.749" filterUnits="userSpaceOnUse" color-interpolation-filters="sRGB">
<feFlood flood-opacity="0" result="BackgroundImageFix"/>
<feBlend mode="normal" in="SourceGraphic" in2="BackgroundImageFix" result="shape"/>
<feColorMatrix in="SourceAlpha" type="matrix" values="0 0 0 0 0 0 0 0 0 0 0 0 0 0 0 0 0 0 127 0" result="hardAlpha"/>
<feOffset dx="6" dy="1.5"/>
<feGaussianBlur stdDeviation="4.5"/>
<feComposite in2="hardAlpha" operator="arithmetic" k2="-1" k3="1"/>
<feColorMatrix type="matrix" values="0 0 0 0 0.415686 0 0 0 0 0.643137 0 0 0 0 0.65098 0 0 0 0.25 0"/>
<feBlend mode="normal" in2="shape" result="effect1_innerShadow_9504_36477"/>
</filter>
<clipPath id="bgblur_1_9504_36477_clip_path" transform="translate(-14.2856 -11.8818)"><path d="M32.2281 30.671L30.3132 38.2793L28.0791 30.671L21.3769 28.9803L28.0791 26.6133L30.3132 19.1741L32.2281 26.6133L39.2495 28.9803L32.2281 30.671Z"/>
</clipPath><linearGradient id="paint0_linear_9504_36477" x1="54.5354" y1="55" x2="121.08" y2="56.3687" gradientUnits="userSpaceOnUse">
<stop stop-color="#066970"/>
<stop offset="0.951923" stop-color="#045C43"/>
</linearGradient>
<linearGradient id="paint1_linear_9504_36477" x1="15.3902" y1="29.5569" x2="20.8012" y2="16.2386" gradientUnits="userSpaceOnUse">
<stop stop-color="#6AA4A6" stop-opacity="0.44"/>
<stop offset="1" stop-color="white" stop-opacity="0.04"/>
</linearGradient>
<linearGradient id="paint2_linear_9504_36477" x1="45.8529" y1="27.8972" x2="40.442" y2="41.2155" gradientUnits="userSpaceOnUse">
<stop stop-color="#6AA4A6" stop-opacity="0.44"/>
<stop offset="1" stop-color="white" stop-opacity="0.04"/>
</linearGradient>
<linearGradient id="paint3_linear_9504_36477" x1="29.521" y1="12.5704" x2="42.1342" y2="17.3288" gradientUnits="userSpaceOnUse">
<stop stop-color="#6AA4A6" stop-opacity="0.44"/>
<stop offset="1" stop-color="white" stop-opacity="0.04"/>
</linearGradient>
<linearGradient id="paint4_linear_9504_36477" x1="31.1055" y1="43.0331" x2="18.4923" y2="38.2747" gradientUnits="userSpaceOnUse">
<stop stop-color="#6AA4A6" stop-opacity="0.44"/>
<stop offset="1" stop-color="white" stop-opacity="0.04"/>
</linearGradient>
<linearGradient id="paint5_linear_9504_36477" x1="21.4193" y1="26.61" x2="30.9013" y2="27.804" gradientUnits="userSpaceOnUse">
<stop stop-color="#045C43"/>
<stop offset="1" stop-color="#6AA4A6" stop-opacity="0"/>
</linearGradient>
<linearGradient id="paint6_linear_9504_36477" x1="19.9944" y1="33.2347" x2="40.3223" y2="17.9979" gradientUnits="userSpaceOnUse">
<stop stop-color="#F2FFFC" stop-opacity="0.53"/>
<stop stop-color="#F2FFFD" stop-opacity="0.53"/>
<stop offset="1" stop-color="#6AA4A6"/>
</linearGradient>
<linearGradient id="paint7_linear_9504_36477" x1="20.2967" y1="20.1189" x2="41.7501" y2="35.2614" gradientUnits="userSpaceOnUse">
<stop stop-color="#6AA4A6" stop-opacity="0.44"/>
<stop offset="1" stop-color="white" stop-opacity="0.04"/>
</linearGradient>
<linearGradient id="paint8_linear_9504_36477" x1="-3.46346" y1="25.1807" x2="69.4213" y2="27.9365" gradientUnits="userSpaceOnUse">
<stop stop-color="#066970"/>
<stop offset="0.951923" stop-color="#045C43"/>
</linearGradient>
</defs>
</svg>
