<svg width="62" height="59" viewBox="0 0 62 59" fill="none" xmlns="http://www.w3.org/2000/svg">
<rect x="3.15039" width="55" height="55" rx="27.5" fill="url(#paint0_linear_9504_36496)"/>
<mask id="mask0_9504_36496" style="mask-type:alpha" maskUnits="userSpaceOnUse" x="6" y="3" width="49" height="49">
<rect x="6.46387" y="3.31348" width="48.3735" height="48.3735" fill="#C4C4C4"/>
</mask>
<g mask="url(#mask0_9504_36496)">
<path d="M19.7871 17.418H41.8682C41.9945 17.4181 42.1158 17.4683 42.2051 17.5576C42.2944 17.647 42.3447 17.7682 42.3447 17.8945V23.9658C41.6117 24.1127 40.9319 24.4734 40.3955 25.0098C39.68 25.7255 39.2774 26.696 39.2773 27.708C39.2773 28.7203 39.6798 29.6915 40.3955 30.4072C40.9319 30.9436 41.6118 31.3033 42.3447 31.4502V37.5215C42.3447 37.6479 42.2945 37.77 42.2051 37.8594C42.1158 37.9486 41.9944 37.9989 41.8682 37.999H19.7871C19.6608 37.999 19.5395 37.9486 19.4502 37.8594C19.3608 37.77 19.3105 37.6479 19.3105 37.5215V31.4502C20.0434 31.3033 20.7234 30.9436 21.2598 30.4072C21.9755 29.6915 22.377 28.7202 22.377 27.708C22.3769 26.696 21.9753 25.7254 21.2598 25.0098C20.7234 24.4734 20.0435 24.1127 19.3105 23.9658V17.8945C19.3106 17.7682 19.3608 17.647 19.4502 17.5576C19.5396 17.4683 19.6607 17.418 19.7871 17.418ZM25.1709 32.1387H36.4844V23.2783H25.1709V32.1387Z" fill="white" stroke="url(#paint1_linear_9504_36496)" stroke-width="1.5"/>
<foreignObject x="10.4287" y="20.5586" width="17.9189" height="15.1826"><div xmlns="http://www.w3.org/1999/xhtml" style="backdrop-filter:blur(2.25px);clip-path:url(#bgblur_0_9504_36496_clip_path);height:100%;width:100%"></div></foreignObject><g filter="url(#filter0_i_9504_36496)" data-figma-bg-blur-radius="4.5">
<rect x="14.9287" y="25.0586" width="7.41908" height="6.18257" fill="url(#paint2_linear_9504_36496)"/>
</g>
<foreignObject x="10.4292" y="19.6758" width="18.979" height="16.0654"><div xmlns="http://www.w3.org/1999/xhtml" style="backdrop-filter:blur(2.25px);clip-path:url(#bgblur_1_9504_36496_clip_path);height:100%;width:100%"></div></foreignObject><g filter="url(#filter1_i_9504_36496)" data-figma-bg-blur-radius="4.5">
<rect x="14.9292" y="24.1758" width="8.47895" height="7.06579" fill="url(#paint3_linear_9504_36496)"/>
<rect x="15.6792" y="24.9258" width="6.97895" height="5.56579" stroke="url(#paint4_linear_9504_36496)" stroke-width="1.5"/>
</g>
<foreignObject x="33.3931" y="20.5586" width="17.9189" height="15.1826"><div xmlns="http://www.w3.org/1999/xhtml" style="backdrop-filter:blur(2.25px);clip-path:url(#bgblur_2_9504_36496_clip_path);height:100%;width:100%"></div></foreignObject><g filter="url(#filter2_i_9504_36496)" data-figma-bg-blur-radius="4.5">
<rect x="37.8931" y="25.0586" width="7.41908" height="6.18257" fill="url(#paint5_linear_9504_36496)"/>
</g>
<foreignObject x="33.3931" y="19.6758" width="18.979" height="16.0654"><div xmlns="http://www.w3.org/1999/xhtml" style="backdrop-filter:blur(2.25px);clip-path:url(#bgblur_3_9504_36496_clip_path);height:100%;width:100%"></div></foreignObject><g filter="url(#filter3_i_9504_36496)" data-figma-bg-blur-radius="4.5">
<rect x="37.8931" y="24.1758" width="8.47895" height="7.06579" fill="url(#paint6_linear_9504_36496)"/>
<rect x="38.6431" y="24.9258" width="6.97895" height="5.56579" stroke="url(#paint7_linear_9504_36496)" stroke-width="1.5"/>
</g>
<rect x="25.689" y="23.748" width="10.2763" height="7.44124" fill="url(#paint8_linear_9504_36496)" stroke="url(#paint9_linear_9504_36496)" stroke-width="1.5"/>
<path d="M29.5403 31.225L32.1768 28.5885L34.8139 31.2257L29.5403 31.225Z" fill="#EAEAEA" stroke="url(#paint10_linear_9504_36496)" stroke-width="1.5"/>
<path d="M26.7485 31.2257L27.7346 30.2396L28.7207 31.2257L26.7485 31.2257Z" fill="#EAEAEA" stroke="url(#paint11_linear_9504_36496)" stroke-width="1.5"/>
</g>
<path d="M0.5 25.1807V27.8313C0.5 44.483 13.9989 57.9819 30.6506 57.9819C47.3023 57.9819 60.8012 44.483 60.8012 27.8313V25.1807" stroke="url(#paint12_linear_9504_36496)"/>
<defs>
<filter id="filter0_i_9504_36496" x="10.4287" y="20.5586" width="17.9189" height="15.1826" filterUnits="userSpaceOnUse" color-interpolation-filters="sRGB">
<feFlood flood-opacity="0" result="BackgroundImageFix"/>
<feBlend mode="normal" in="SourceGraphic" in2="BackgroundImageFix" result="shape"/>
<feColorMatrix in="SourceAlpha" type="matrix" values="0 0 0 0 0 0 0 0 0 0 0 0 0 0 0 0 0 0 127 0" result="hardAlpha"/>
<feOffset dx="6" dy="1.5"/>
<feGaussianBlur stdDeviation="4.5"/>
<feComposite in2="hardAlpha" operator="arithmetic" k2="-1" k3="1"/>
<feColorMatrix type="matrix" values="0 0 0 0 1 0 0 0 0 0.211765 0 0 0 0 0.224902 0 0 0 0.25 0"/>
<feBlend mode="normal" in2="shape" result="effect1_innerShadow_9504_36496"/>
</filter>
<clipPath id="bgblur_0_9504_36496_clip_path" transform="translate(-10.4287 -20.5586)"><rect x="14.9287" y="25.0586" width="7.41908" height="6.18257"/>
</clipPath><filter id="filter1_i_9504_36496" x="10.4292" y="19.6758" width="18.979" height="16.0654" filterUnits="userSpaceOnUse" color-interpolation-filters="sRGB">
<feFlood flood-opacity="0" result="BackgroundImageFix"/>
<feBlend mode="normal" in="SourceGraphic" in2="BackgroundImageFix" result="shape"/>
<feColorMatrix in="SourceAlpha" type="matrix" values="0 0 0 0 0 0 0 0 0 0 0 0 0 0 0 0 0 0 127 0" result="hardAlpha"/>
<feOffset dx="6" dy="1.5"/>
<feGaussianBlur stdDeviation="4.5"/>
<feComposite in2="hardAlpha" operator="arithmetic" k2="-1" k3="1"/>
<feColorMatrix type="matrix" values="0 0 0 0 0.415686 0 0 0 0 0.643137 0 0 0 0 0.65098 0 0 0 0.25 0"/>
<feBlend mode="normal" in2="shape" result="effect1_innerShadow_9504_36496"/>
</filter>
<clipPath id="bgblur_1_9504_36496_clip_path" transform="translate(-10.4292 -19.6758)"><rect x="14.9292" y="24.1758" width="8.47895" height="7.06579"/>
</clipPath><filter id="filter2_i_9504_36496" x="33.3931" y="20.5586" width="17.9189" height="15.1826" filterUnits="userSpaceOnUse" color-interpolation-filters="sRGB">
<feFlood flood-opacity="0" result="BackgroundImageFix"/>
<feBlend mode="normal" in="SourceGraphic" in2="BackgroundImageFix" result="shape"/>
<feColorMatrix in="SourceAlpha" type="matrix" values="0 0 0 0 0 0 0 0 0 0 0 0 0 0 0 0 0 0 127 0" result="hardAlpha"/>
<feOffset dx="6" dy="1.5"/>
<feGaussianBlur stdDeviation="4.5"/>
<feComposite in2="hardAlpha" operator="arithmetic" k2="-1" k3="1"/>
<feColorMatrix type="matrix" values="0 0 0 0 1 0 0 0 0 0.211765 0 0 0 0 0.224902 0 0 0 0.25 0"/>
<feBlend mode="normal" in2="shape" result="effect1_innerShadow_9504_36496"/>
</filter>
<clipPath id="bgblur_2_9504_36496_clip_path" transform="translate(-33.3931 -20.5586)"><rect x="37.8931" y="25.0586" width="7.41908" height="6.18257"/>
</clipPath><filter id="filter3_i_9504_36496" x="33.3931" y="19.6758" width="18.979" height="16.0654" filterUnits="userSpaceOnUse" color-interpolation-filters="sRGB">
<feFlood flood-opacity="0" result="BackgroundImageFix"/>
<feBlend mode="normal" in="SourceGraphic" in2="BackgroundImageFix" result="shape"/>
<feColorMatrix in="SourceAlpha" type="matrix" values="0 0 0 0 0 0 0 0 0 0 0 0 0 0 0 0 0 0 127 0" result="hardAlpha"/>
<feOffset dx="6" dy="1.5"/>
<feGaussianBlur stdDeviation="4.5"/>
<feComposite in2="hardAlpha" operator="arithmetic" k2="-1" k3="1"/>
<feColorMatrix type="matrix" values="0 0 0 0 0.415686 0 0 0 0 0.643137 0 0 0 0 0.65098 0 0 0 0.25 0"/>
<feBlend mode="normal" in2="shape" result="effect1_innerShadow_9504_36496"/>
</filter>
<clipPath id="bgblur_3_9504_36496_clip_path" transform="translate(-33.3931 -19.6758)"><rect x="37.8931" y="24.1758" width="8.47895" height="7.06579"/>
</clipPath><linearGradient id="paint0_linear_9504_36496" x1="-0.464633" y1="-3.55287e-07" x2="66.0796" y2="1.36865" gradientUnits="userSpaceOnUse">
<stop stop-color="#066970"/>
<stop offset="0.951923" stop-color="#045C43"/>
</linearGradient>
<linearGradient id="paint1_linear_9504_36496" x1="44.5774" y1="37.6567" x2="18.6668" y2="15.9346" gradientUnits="userSpaceOnUse">
<stop stop-color="#6AA4A6" stop-opacity="0.44"/>
<stop offset="1" stop-color="white" stop-opacity="0.04"/>
</linearGradient>
<linearGradient id="paint2_linear_9504_36496" x1="22.3478" y1="24.2858" x2="19.4944" y2="29.2995" gradientUnits="userSpaceOnUse">
<stop stop-color="#045C43"/>
<stop offset="1" stop-color="#6AA4A6" stop-opacity="0"/>
</linearGradient>
<linearGradient id="paint3_linear_9504_36496" x1="24.064" y1="26.0415" x2="16.2375" y2="33.5666" gradientUnits="userSpaceOnUse">
<stop stop-color="#FFF2F2" stop-opacity="0.53"/>
<stop stop-color="#F2FFFE" stop-opacity="0.53"/>
<stop offset="1" stop-color="#6AA4A6"/>
</linearGradient>
<linearGradient id="paint4_linear_9504_36496" x1="23.9206" y1="30.8922" x2="15.5414" y2="23.3055" gradientUnits="userSpaceOnUse">
<stop stop-color="#6AA4A6" stop-opacity="0.44"/>
<stop offset="1" stop-color="white" stop-opacity="0.04"/>
</linearGradient>
<linearGradient id="paint5_linear_9504_36496" x1="45.3121" y1="24.2858" x2="42.4588" y2="29.2995" gradientUnits="userSpaceOnUse">
<stop stop-color="#045C43"/>
<stop offset="1" stop-color="#6AA4A6" stop-opacity="0"/>
</linearGradient>
<linearGradient id="paint6_linear_9504_36496" x1="47.0279" y1="26.0415" x2="39.2014" y2="33.5666" gradientUnits="userSpaceOnUse">
<stop stop-color="#FFF2F2" stop-opacity="0.53"/>
<stop stop-color="#F2FFFE" stop-opacity="0.53"/>
<stop offset="1" stop-color="#6AA4A6"/>
</linearGradient>
<linearGradient id="paint7_linear_9504_36496" x1="46.8845" y1="30.8922" x2="38.5053" y2="23.3055" gradientUnits="userSpaceOnUse">
<stop stop-color="#6AA4A6" stop-opacity="0.44"/>
<stop offset="1" stop-color="white" stop-opacity="0.04"/>
</linearGradient>
<linearGradient id="paint8_linear_9504_36496" x1="24.1649" y1="22.998" x2="38.4086" y2="23.3839" gradientUnits="userSpaceOnUse">
<stop stop-color="#066970"/>
<stop offset="0.951923" stop-color="#045C43"/>
</linearGradient>
<linearGradient id="paint9_linear_9504_36496" x1="37.427" y1="31.4971" x2="26.7715" y2="20.9083" gradientUnits="userSpaceOnUse">
<stop stop-color="#6AA4A6" stop-opacity="0.44"/>
<stop offset="1" stop-color="white" stop-opacity="0.04"/>
</linearGradient>
<linearGradient id="paint10_linear_9504_36496" x1="27.6795" y1="32.4644" x2="36.6229" y2="31.213" gradientUnits="userSpaceOnUse">
<stop stop-color="#6AA4A6" stop-opacity="0.44"/>
<stop offset="1" stop-color="white" stop-opacity="0.04"/>
</linearGradient>
<linearGradient id="paint11_linear_9504_36496" x1="24.9077" y1="32.2829" x2="30.5303" y2="31.4962" gradientUnits="userSpaceOnUse">
<stop stop-color="#6AA4A6" stop-opacity="0.44"/>
<stop offset="1" stop-color="white" stop-opacity="0.04"/>
</linearGradient>
<linearGradient id="paint12_linear_9504_36496" x1="-3.46346" y1="25.1807" x2="69.4213" y2="27.9365" gradientUnits="userSpaceOnUse">
<stop stop-color="#066970"/>
<stop offset="0.951923" stop-color="#045C43"/>
</linearGradient>
</defs>
</svg>
