<svg width="26" height="26" viewBox="0 0 26 26" fill="none" xmlns="http://www.w3.org/2000/svg">
<path d="M12.8635 2.35006C16.3267 2.35006 16.6978 2.35006 18.0584 2.47375C19.2952 2.47375 20.0374 2.72112 20.4084 2.9685C21.0268 3.21587 21.3979 3.46325 21.8927 3.95799C22.3874 4.45274 22.6348 4.82381 22.8822 5.44224C23.0058 5.93699 23.2532 6.55543 23.3769 7.7923C23.5006 9.15286 23.5006 9.52393 23.5006 12.9872C23.5006 16.4504 23.5006 16.8215 23.3769 18.182C23.3769 19.4189 23.1295 20.161 22.8822 20.5321C22.6348 21.1505 22.3874 21.5216 21.8927 22.0163C21.3979 22.5111 21.0268 22.7585 20.4084 23.0058C19.9137 23.1295 19.2952 23.3769 18.0584 23.5006C16.6978 23.5006 16.3267 23.6243 12.8635 23.6243C9.40025 23.6243 9.02917 23.6243 7.66861 23.5006C6.43174 23.5006 5.68962 23.2532 5.31856 23.0058C4.70012 22.7585 4.32906 22.5111 3.83432 22.0163C3.33957 21.5216 3.09219 21.1505 2.84481 20.5321C2.72113 20.0374 2.47376 19.4189 2.35007 18.182C2.22638 16.8215 2.22638 16.4504 2.22638 12.9872C2.22638 9.52393 2.22638 9.15286 2.35007 7.7923C2.35007 6.55543 2.59744 5.8133 2.84481 5.44224C3.09219 4.82381 3.33957 4.45274 3.83432 3.95799C4.32906 3.46325 4.70012 3.21587 5.31856 2.9685C5.81331 2.84481 6.43174 2.59743 7.66861 2.47375C9.02917 2.35006 9.40025 2.35006 12.8635 2.35006ZM12.8635 0C9.40025 0 8.9055 -7.09588e-07 7.54494 0.123687C6.18438 0.247374 5.19488 0.371061 4.45275 0.742123C3.58694 1.11319 2.84481 1.48425 2.22638 2.22637C1.60794 2.9685 1.11319 3.71062 0.742132 4.45274C0.37107 5.31856 0.247382 6.18437 0.123695 7.54493C7.54743e-06 8.90549 0 9.40024 0 12.8635C0 16.3267 7.54743e-06 16.8215 0.123695 18.182C0.247382 19.5426 0.37107 20.5321 0.742132 21.2742C1.11319 22.14 1.48425 22.8822 2.22638 23.5006C2.9685 24.2427 3.71063 24.6138 4.45275 24.9848C5.31856 25.3559 6.18438 25.4796 7.54494 25.6033C8.9055 25.727 9.40025 25.727 12.8635 25.727C16.3267 25.727 16.8215 25.727 18.182 25.6033C19.5426 25.4796 20.5321 25.3559 21.2742 24.9848C22.14 24.6138 22.8822 24.2427 23.5006 23.5006C24.2427 22.7585 24.6138 22.0163 24.9848 21.2742C25.3559 20.4084 25.4796 19.5426 25.6033 18.182C25.727 16.8215 25.727 16.3267 25.727 12.8635C25.727 9.40024 25.727 8.90549 25.6033 7.54493C25.4796 6.18437 25.3559 5.19487 24.9848 4.45274C24.6138 3.58693 24.2427 2.84481 23.5006 2.22637C22.7585 1.48425 22.0163 1.11319 21.2742 0.742123C20.4084 0.371061 19.5426 0.247374 18.182 0.123687C16.8215 -7.09588e-07 16.3267 0 12.8635 0Z" fill="#F4F4F4"/>
<path d="M12.8633 6.30762C9.15271 6.30762 6.1842 9.27611 6.1842 12.9867C6.1842 16.6974 9.15271 19.6658 12.8633 19.6658C16.574 19.6658 19.5424 16.6974 19.5424 12.9867C19.5424 9.27611 16.574 6.30762 12.8633 6.30762ZM12.8633 17.1921C10.5133 17.1921 8.53427 15.2131 8.53427 12.863C8.53427 10.513 10.5133 8.53399 12.8633 8.53399C15.2134 8.53399 17.1924 10.513 17.1924 12.863C17.1924 15.3368 15.2134 17.1921 12.8633 17.1921Z" fill="#F4F4F4"/>
<path d="M21.2741 6.06106C21.2741 6.92687 20.532 7.669 19.6662 7.669C18.8004 7.669 18.0582 6.92687 18.0582 6.06106C18.0582 5.19525 18.8004 4.45312 19.6662 4.45312C20.6557 4.45312 21.2741 5.19525 21.2741 6.06106Z" fill="#F4F4F4"/>
</svg>
