<svg width="173" height="30" viewBox="0 0 173 30" fill="none" xmlns="http://www.w3.org/2000/svg">
<rect x="2.76616" y="3.05583" width="0.709324" height="0.712477" fill="white" stroke="white" stroke-width="0.709324"/>
<rect x="2.90825" y="26.6584" width="0.709324" height="0.712477" fill="white" stroke="white" stroke-width="0.709324"/>
<rect x="26.3158" y="3.05583" width="0.709324" height="0.712477" fill="white" stroke="white" stroke-width="0.709324"/>
<rect x="26.4576" y="26.6584" width="0.709324" height="0.712477" fill="white" stroke="white" stroke-width="0.709324"/>
<path d="M26.9542 1.49997L26.6705 1.49997L26.6705 -1.24298e-08L26.9542 0L26.9542 1.49997ZM26.9542 7.5L26.6705 7.5L26.6705 4.50006L26.9542 4.50006L26.9542 7.5ZM26.9542 13.5L26.6705 13.5L26.6705 10.4999L26.9542 10.4999L26.9542 13.5ZM26.9542 19.5001L26.6705 19.5001L26.6705 16.5L26.9542 16.5L26.9542 19.5001ZM26.9542 25.4999L26.6705 25.4999L26.6705 22.5L26.9542 22.5L26.9542 25.4999ZM26.9542 30L26.6705 30L26.6705 28.5L26.9542 28.5L26.9542 30Z" fill="white"/>
<path d="M3.40466 1.49997L3.12093 1.49997L3.12093 -1.24298e-08L3.40466 0L3.40466 1.49997ZM3.40466 7.5L3.12093 7.5L3.12093 4.50006L3.40466 4.50006L3.40466 7.5ZM3.40466 13.5L3.12093 13.5L3.12093 10.4999L3.40466 10.4999L3.40466 13.5ZM3.40466 19.5001L3.12093 19.5001L3.12093 16.5L3.40466 16.5L3.40466 19.5001ZM3.40466 25.4999L3.12093 25.4999L3.12093 22.5L3.40466 22.5L3.40466 25.4999ZM3.40466 30L3.12093 30L3.12093 28.5L3.40466 28.5L3.40466 30Z" fill="white"/>
<path d="M28.4368 3.69629L28.4368 3.41193L29.9335 3.41193L29.9335 3.69629L28.4368 3.69629ZM22.4501 3.69629L22.4501 3.41193L25.4434 3.41193L25.4434 3.69629L22.4501 3.69629ZM16.4634 3.69629L16.4634 3.41193L19.4568 3.41193L19.4568 3.69629L16.4634 3.69629ZM10.4767 3.69629L10.4767 3.41193L13.4701 3.41193L13.4701 3.69629L10.4767 3.69629ZM4.49008 3.69629L4.49008 3.41193L7.48337 3.41193L7.48337 3.69629L4.49008 3.69629ZM7.62939e-06 3.69629L7.6542e-06 3.41193L1.49665 3.41193L1.49665 3.69629L7.62939e-06 3.69629Z" fill="white"/>
<path d="M28.4368 27.2988L28.4368 27.0145L29.9335 27.0145L29.9335 27.2988L28.4368 27.2988ZM22.4501 27.2988L22.4501 27.0145L25.4434 27.0145L25.4434 27.2988L22.4501 27.2988ZM16.4634 27.2988L16.4634 27.0145L19.4568 27.0145L19.4568 27.2988L16.4634 27.2988ZM10.4767 27.2988L10.4767 27.0145L13.4701 27.0145L13.4701 27.2988L10.4767 27.2988ZM4.49008 27.2988L4.49008 27.0145L7.48337 27.0145L7.48337 27.2988L4.49008 27.2988ZM7.62939e-06 27.2988L7.6542e-06 27.0145L1.49665 27.0145L1.49665 27.2988L7.62939e-06 27.2988Z" fill="white"/>
<path d="M12.4004 15.3947C12.4004 14.052 12.6694 12.8578 13.2074 11.8121C13.7454 10.7535 14.4926 9.93367 15.449 9.35272C16.4174 8.75885 17.5114 8.46191 18.7308 8.46191C20.2253 8.46191 21.5045 8.88795 22.5686 9.74002C23.6326 10.5921 24.3439 11.754 24.7026 13.2258H21.3312C21.0801 12.6577 20.7214 12.2252 20.2552 11.9283C19.8009 11.6314 19.2808 11.4829 18.695 11.4829C17.7505 11.4829 16.9853 11.8379 16.3995 12.548C15.8137 13.258 15.5208 14.2069 15.5208 15.3947C15.5208 16.5824 15.8137 17.5313 16.3995 18.2414C16.9853 18.9514 17.7505 19.3065 18.695 19.3065C19.2808 19.3065 19.8009 19.158 20.2552 18.8611C20.7214 18.5641 21.0801 18.1316 21.3312 17.5636H24.7026C24.3439 19.0353 23.6326 20.1973 22.5686 21.0493C21.5045 21.8885 20.2253 22.3081 18.7308 22.3081C17.5114 22.3081 16.4174 22.0176 15.449 21.4366C14.4926 20.8428 13.7454 20.023 13.2074 18.9772C12.6694 17.9315 12.4004 16.7373 12.4004 15.3947Z" fill="#258E91"/>
<path d="M11.0454 22.3081C10.0028 22.3081 9.06849 22.1476 8.24254 21.8266C7.41659 21.5057 6.75312 21.0307 6.25214 20.4016C5.76469 19.7725 5.50743 19.015 5.48035 18.1292H9.17682C9.23098 18.6299 9.41377 19.015 9.72519 19.2846C10.0366 19.5414 10.4428 19.6698 10.9438 19.6698C11.4583 19.6698 11.8645 19.5607 12.1624 19.3424C12.4603 19.1113 12.6093 18.7968 12.6093 18.3988C12.6093 18.065 12.4874 17.789 12.2437 17.5707C12.0135 17.3525 11.7224 17.1727 11.3703 17.0315C11.0318 16.8903 10.5444 16.7298 9.90799 16.5501C8.98725 16.2805 8.23577 16.0109 7.65355 15.7413C7.07132 15.4717 6.57033 15.0737 6.15059 14.5473C5.73084 14.0209 5.52097 13.3341 5.52097 12.4867C5.52097 11.2286 6.00164 10.2464 6.963 9.54033C7.92435 8.82139 9.17682 8.46191 10.7204 8.46191C12.2911 8.46191 13.5571 8.82139 14.5184 9.54033C15.4798 10.2464 15.9943 11.235 16.062 12.506H12.3046C12.2775 12.0695 12.1083 11.7293 11.7968 11.4853C11.4854 11.2286 11.086 11.1002 10.5985 11.1002C10.1788 11.1002 9.84029 11.2093 9.58302 11.4276C9.32576 11.633 9.19713 11.9347 9.19713 12.3327C9.19713 12.7692 9.41377 13.1094 9.84705 13.3533C10.2803 13.5973 10.9574 13.8604 11.8781 14.1429C12.7988 14.4382 13.5435 14.7206 14.1122 14.9902C14.6944 15.2598 15.1954 15.6514 15.6152 16.1649C16.0349 16.6785 16.2448 17.3396 16.2448 18.1484C16.2448 18.9187 16.0349 19.6184 15.6152 20.2475C15.209 20.8766 14.6132 21.3773 13.8279 21.7496C13.0425 22.1219 12.115 22.3081 11.0454 22.3081Z" fill="#05676A"/>
<path d="M36.42 20.0003C35.7909 20.0003 35.2272 19.8933 34.7289 19.6793C34.2306 19.4654 33.8303 19.1487 33.528 18.7293C33.2339 18.3099 33.0787 17.8049 33.0624 17.2144H35.2926C35.3253 17.5482 35.4356 17.8049 35.6235 17.9847C35.8113 18.1559 36.0564 18.2414 36.3587 18.2414C36.6691 18.2414 36.9142 18.1687 37.0939 18.0232C37.2737 17.8691 37.3635 17.6594 37.3635 17.3941C37.3635 17.1716 37.29 16.9876 37.1429 16.8421C37.0041 16.6966 36.8284 16.5767 36.616 16.4826C36.4118 16.3884 36.1177 16.2815 35.7337 16.1616C35.1782 15.9819 34.7248 15.8022 34.3736 15.6224C34.0223 15.4427 33.72 15.1774 33.4668 14.8264C33.2135 14.4755 33.0869 14.0176 33.0869 13.4527C33.0869 12.614 33.3769 11.9592 33.9569 11.4885C34.5369 11.0092 35.2926 10.7695 36.2239 10.7695C37.1715 10.7695 37.9354 11.0092 38.5154 11.4885C39.0954 11.9592 39.4058 12.6183 39.4467 13.4656H37.1797C37.1634 13.1746 37.0612 12.9478 36.8734 12.7852C36.6855 12.614 36.4445 12.5284 36.1504 12.5284C35.8971 12.5284 35.6929 12.6011 35.5377 12.7466C35.3825 12.8836 35.3048 13.0847 35.3048 13.35C35.3048 13.641 35.4356 13.8679 35.697 14.0305C35.9584 14.1931 36.3669 14.3685 36.9224 14.5568C37.4779 14.7537 37.9272 14.942 38.2703 15.1217C38.6216 15.3015 38.9238 15.5625 39.1771 15.9049C39.4303 16.2472 39.557 16.688 39.557 17.2272C39.557 17.7408 39.4303 18.2072 39.1771 18.6266C38.932 19.046 38.5726 19.3798 38.0987 19.628C37.6249 19.8762 37.0653 20.0003 36.42 20.0003Z" fill="#05676A"/>
<path d="M54.1543 10.8979L51.9118 19.9104H49.3752L48.0028 13.9791L46.5814 19.9104H44.0448L41.8636 10.8979H44.1061L45.3437 17.4583L46.8754 10.8979H49.1792L50.6497 17.4583L51.8996 10.8979H54.1543Z" fill="#05676A"/>
<path d="M58.7711 10.8979V19.9104H56.6756V10.8979H58.7711Z" fill="#05676A"/>
<path d="M67.3601 10.8979V12.6568H63.8555V14.5568H66.4778V16.2643H63.8555V19.9104H61.7601V10.8979H67.3601Z" fill="#05676A"/>
<path d="M76.1202 10.8979V12.6568H73.8409V19.9104H71.7455V12.6568H69.4663V10.8979H76.1202Z" fill="#05676A"/>
<path d="M79.1957 15.3914C79.1957 14.4963 79.3699 13.7001 79.7183 13.003C80.0667 12.2972 80.5506 11.7507 81.1701 11.3634C81.7972 10.9675 82.5057 10.7695 83.2954 10.7695C84.2633 10.7695 85.0917 11.0536 85.7808 11.6216C86.4699 12.1896 86.9306 12.9643 87.1629 13.9454H84.9794C84.8169 13.5667 84.5846 13.2784 84.2826 13.0805C83.9884 12.8825 83.6516 12.7835 83.2722 12.7835C82.6605 12.7835 82.165 13.0202 81.7856 13.4936C81.4062 13.9669 81.2165 14.5995 81.2165 15.3914C81.2165 16.1832 81.4062 16.8158 81.7856 17.2892C82.165 17.7625 82.6605 17.9992 83.2722 17.9992C83.6516 17.9992 83.9884 17.9002 84.2826 17.7023C84.5846 17.5043 84.8169 17.216 84.9794 16.8373H87.1629C86.9306 17.8185 86.4699 18.5931 85.7808 19.1611C85.0917 19.7206 84.2633 20.0003 83.2954 20.0003C82.5057 20.0003 81.7972 19.8066 81.1701 19.4193C80.5506 19.0234 80.0667 18.4769 79.7183 17.7798C79.3699 17.0826 79.1957 16.2865 79.1957 15.3914Z" fill="#258E91"/>
<path d="M94.8481 18.3349H91.8052L91.3174 19.9357H89.2385L92.1885 10.8728H94.488L97.438 19.9357H95.3359L94.8481 18.3349ZM94.3371 16.6307L93.3266 13.3128L92.3278 16.6307H94.3371Z" fill="#258E91"/>
<path d="M103.887 19.9357L102.192 16.5146H101.715V19.9357H99.7295V10.8728H103.063C103.705 10.8728 104.251 10.9976 104.7 11.2472C105.157 11.4968 105.498 11.8411 105.722 12.28C105.947 12.7104 106.059 13.1923 106.059 13.726C106.059 14.3284 105.904 14.8664 105.595 15.3397C105.293 15.8131 104.844 16.1488 104.247 16.3467L106.129 19.9357H103.887ZM101.715 14.9524H102.947C103.31 14.9524 103.581 14.8534 103.76 14.6555C103.945 14.4575 104.038 14.1778 104.038 13.8163C104.038 13.4721 103.945 13.2009 103.76 13.003C103.581 12.805 103.31 12.7061 102.947 12.7061H101.715V14.9524Z" fill="#258E91"/>
<path d="M114.565 10.8728V12.6415H112.404V19.9357H110.418V12.6415H108.258V10.8728H114.565Z" fill="#258E91"/>
<path d="M121.814 10.886C122.737 10.886 123.535 11.0716 124.208 11.4427C124.888 11.8052 125.406 12.3274 125.763 13.0093C126.127 13.6911 126.309 14.4938 126.309 15.4173C126.309 16.3408 126.127 17.1435 125.763 17.8253C125.406 18.4985 124.888 19.0164 124.208 19.3789C123.535 19.7327 122.737 19.9097 121.814 19.9097H119.178V10.886H121.814ZM121.814 18.9387C122.908 18.9387 123.742 18.6323 124.317 18.0195C124.892 17.3981 125.179 16.5307 125.179 15.4173C125.179 14.2953 124.888 13.4192 124.305 12.7892C123.73 12.1591 122.899 11.8441 121.814 11.8441H120.283V18.9387H121.814Z" fill="white"/>
<path d="M128.873 11.8441V14.8606H131.959V15.8316H128.873V18.9387H132.323V19.9097H127.768V10.8731H132.323V11.8441H128.873Z" fill="white"/>
<path d="M136.681 20.0003C136.122 20.0003 135.62 19.8967 135.175 19.6896C134.737 19.4738 134.393 19.1804 134.142 18.8092C133.891 18.4295 133.761 17.9936 133.753 17.5016H134.932C134.972 17.9246 135.134 18.2827 135.418 18.5762C135.709 18.861 136.13 19.0034 136.681 19.0034C137.208 19.0034 137.621 18.8653 137.92 18.5891C138.228 18.3043 138.382 17.9418 138.382 17.5016C138.382 17.1564 138.293 16.8759 138.115 16.6601C137.937 16.4444 137.714 16.2804 137.447 16.1682C137.179 16.056 136.819 15.9351 136.365 15.8057C135.806 15.6503 135.357 15.495 135.017 15.3396C134.685 15.1842 134.397 14.9426 134.154 14.6146C133.919 14.278 133.802 13.8292 133.802 13.2682C133.802 12.7762 133.919 12.3404 134.154 11.9606C134.389 11.5808 134.717 11.2874 135.138 11.0802C135.568 10.8731 136.058 10.7695 136.608 10.7695C137.402 10.7695 138.05 10.981 138.552 11.4039C139.062 11.8268 139.35 12.3878 139.415 13.0869H138.2C138.159 12.7417 137.989 12.4396 137.69 12.1807C137.39 11.9131 136.993 11.7793 136.499 11.7793C136.037 11.7793 135.661 11.9088 135.369 12.1677C135.077 12.418 134.932 12.7719 134.932 13.2293C134.932 13.5573 135.017 13.8249 135.187 14.032C135.365 14.2392 135.58 14.3988 135.831 14.511C136.09 14.6146 136.45 14.7354 136.912 14.8735C137.471 15.0375 137.92 15.2015 138.261 15.3655C138.601 15.5209 138.892 15.7668 139.135 16.1034C139.378 16.4314 139.5 16.8802 139.5 17.4499C139.5 17.89 139.39 18.3043 139.172 18.6927C138.953 19.0811 138.629 19.3961 138.2 19.6378C137.771 19.8795 137.264 20.0003 136.681 20.0003Z" fill="white"/>
<path d="M142.232 10.886V19.9097H141.127V10.886H142.232Z" fill="white"/>
<path d="M150.531 13.5012C150.296 12.9747 149.956 12.5691 149.511 12.2843C149.065 11.9908 148.547 11.8441 147.955 11.8441C147.364 11.8441 146.83 11.9908 146.352 12.2843C145.882 12.5691 145.509 12.9834 145.234 13.5271C144.967 14.0622 144.833 14.6837 144.833 15.3914C144.833 16.0991 144.967 16.7206 145.234 17.2557C145.509 17.7908 145.882 18.2051 146.352 18.4985C146.83 18.7833 147.364 18.9258 147.955 18.9258C148.782 18.9258 149.462 18.6625 149.996 18.136C150.531 17.6095 150.843 16.8975 150.932 15.9999H147.555V15.0418H152.11V15.9481C152.046 16.6903 151.827 17.3722 151.454 17.9936C151.082 18.6064 150.592 19.0941 149.984 19.4566C149.377 19.8104 148.701 19.9874 147.955 19.9874C147.17 19.9874 146.453 19.7932 145.805 19.4048C145.157 19.0077 144.643 18.4597 144.262 17.7606C143.89 17.0615 143.703 16.2717 143.703 15.3914C143.703 14.511 143.89 13.7213 144.262 13.0222C144.643 12.3145 145.157 11.7664 145.805 11.378C146.453 10.981 147.17 10.7825 147.955 10.7825C148.854 10.7825 149.648 11.0198 150.337 11.4945C151.033 11.9692 151.539 12.6381 151.855 13.5012H150.531Z" fill="white"/>
<path d="M160.23 19.9097H159.124L154.678 12.7244V19.9097H153.572V10.8731H154.678L159.124 18.0454V10.8731H160.23V19.9097Z" fill="white"/>
<path d="M164.799 20.0003C164.24 20.0003 163.738 19.8967 163.293 19.6896C162.855 19.4738 162.511 19.1804 162.26 18.8092C162.009 18.4295 161.88 17.9936 161.871 17.5016H163.05C163.09 17.9246 163.252 18.2827 163.536 18.5762C163.827 18.861 164.249 19.0034 164.799 19.0034C165.326 19.0034 165.739 18.8653 166.038 18.5891C166.346 18.3043 166.5 17.9418 166.5 17.5016C166.5 17.1564 166.411 16.8759 166.233 16.6601C166.055 16.4444 165.832 16.2804 165.565 16.1682C165.297 16.056 164.937 15.9351 164.483 15.8057C163.925 15.6503 163.475 15.495 163.135 15.3396C162.803 15.1842 162.515 14.9426 162.272 14.6146C162.037 14.278 161.92 13.8292 161.92 13.2682C161.92 12.7762 162.037 12.3404 162.272 11.9606C162.507 11.5808 162.835 11.2874 163.256 11.0802C163.686 10.8731 164.176 10.7695 164.726 10.7695C165.52 10.7695 166.168 10.981 166.67 11.4039C167.18 11.8268 167.468 12.3878 167.533 13.0869H166.318C166.277 12.7417 166.107 12.4396 165.808 12.1807C165.508 11.9131 165.111 11.7793 164.617 11.7793C164.155 11.7793 163.779 11.9088 163.487 12.1677C163.196 12.418 163.05 12.7719 163.05 13.2293C163.05 13.5573 163.135 13.8249 163.305 14.032C163.483 14.2392 163.698 14.3988 163.949 14.511C164.208 14.6146 164.568 14.7354 165.03 14.8735C165.589 15.0375 166.038 15.2015 166.379 15.3655C166.719 15.5209 167.01 15.7668 167.253 16.1034C167.496 16.4314 167.618 16.8802 167.618 17.4499C167.618 17.89 167.509 18.3043 167.29 18.6927C167.071 19.0811 166.747 19.3961 166.318 19.6378C165.889 19.8795 165.382 20.0003 164.799 20.0003Z" fill="white"/>
</svg>
