<svg width="342" height="59" viewBox="0 0 342 59" fill="none" xmlns="http://www.w3.org/2000/svg">
<rect x="5.26733" y="5.8125" width="1.80449" height="1.79621" fill="white" stroke="white"/>
<rect x="5.5481" y="52.2305" width="1.80449" height="1.79621" fill="white" stroke="white"/>
<rect x="51.822" y="5.8125" width="1.80449" height="1.79621" fill="white" stroke="white"/>
<rect x="52.1023" y="52.2305" width="1.80449" height="1.79621" fill="white" stroke="white"/>
<path d="M53.2852 2.94995L52.7243 2.94995L52.7243 -2.44452e-08L53.2852 0L53.2852 2.94995ZM53.2852 14.75L52.7243 14.75L52.7243 8.85011L53.2852 8.85011L53.2852 14.75ZM53.2852 26.5501L52.7243 26.5501L52.7243 20.6499L53.2852 20.6499L53.2852 26.5501ZM53.2852 38.3501L52.7243 38.3501L52.7243 32.4499L53.2852 32.4499L53.2852 38.3501ZM53.2852 50.1499L52.7243 50.1499L52.7243 44.25L53.2852 44.25L53.2852 50.1499ZM53.2852 59L52.7243 59L52.7243 56.0501L53.2852 56.0501L53.2852 59Z" fill="white"/>
<path d="M6.73047 2.94995L6.16957 2.94995L6.16957 -2.44452e-08L6.73047 0L6.73047 2.94995ZM6.73047 14.75L6.16957 14.75L6.16957 8.85011L6.73047 8.85011L6.73047 14.75ZM6.73047 26.5501L6.16957 26.5501L6.16957 20.6499L6.73047 20.6499L6.73047 26.5501ZM6.73047 38.3501L6.16957 38.3501L6.16957 32.4499L6.73047 32.4499L6.73047 38.3501ZM6.73047 50.1499L6.16957 50.1499L6.16957 44.25L6.73047 44.25L6.73047 50.1499ZM6.73047 59L6.16957 59L6.16957 56.0501L6.73047 56.0501L6.73047 59Z" fill="white"/>
<path d="M56.2161 7.26953L56.2161 6.71029L59.1748 6.71029L59.1748 7.26953L56.2161 7.26953ZM44.3811 7.26953L44.3811 6.71029L50.2985 6.71029L50.2985 7.26953L44.3811 7.26953ZM32.5461 7.26953L32.5461 6.71029L38.4637 6.71029L38.4637 7.26953L32.5461 7.26953ZM20.7111 7.26953L20.7111 6.71029L26.6287 6.71029L26.6287 7.26953L20.7111 7.26953ZM8.8763 7.26953L8.8763 6.71029L14.7937 6.71029L14.7937 7.26953L8.8763 7.26953ZM-3.05176e-05 7.26953L-3.04685e-05 6.71028L2.95866 6.71028L2.95866 7.26953L-3.05176e-05 7.26953Z" fill="white"/>
<path d="M56.2161 53.6875L56.2161 53.1283L59.1748 53.1283L59.1748 53.6875L56.2161 53.6875ZM44.3811 53.6875L44.3811 53.1283L50.2985 53.1283L50.2985 53.6875L44.3811 53.6875ZM32.5461 53.6875L32.5461 53.1283L38.4637 53.1283L38.4637 53.6875L32.5461 53.6875ZM20.7111 53.6875L20.7111 53.1283L26.6287 53.1283L26.6287 53.6875L20.7111 53.6875ZM8.8763 53.6875L8.8763 53.1283L14.7937 53.1283L14.7937 53.6875L8.8763 53.6875ZM-3.05176e-05 53.6875L-3.04685e-05 53.1283L2.95866 53.1283L2.95866 53.6875L-3.05176e-05 53.6875Z" fill="white"/>
<path d="M24.5139 30.2751C24.5139 27.6345 25.0457 25.2859 26.1093 23.2293C27.1728 21.1473 28.65 19.5351 30.5407 18.3925C32.4551 17.2246 34.6177 16.6406 37.0284 16.6406C39.9828 16.6406 42.5117 17.4785 44.6151 19.1542C46.7186 20.83 48.1249 23.1151 48.8339 26.0095H42.169C41.6726 24.8924 40.9636 24.0418 40.0418 23.4578C39.1437 22.8739 38.1156 22.5819 36.9575 22.5819C35.0904 22.5819 33.5778 23.2801 32.4197 24.6766C31.2616 26.073 30.6825 27.9392 30.6825 30.2751C30.6825 32.6109 31.2616 34.4771 32.4197 35.8735C33.5778 37.27 35.0904 37.9682 36.9575 37.9682C38.1156 37.9682 39.1437 37.6762 40.0418 37.0923C40.9636 36.5083 41.6726 35.6577 42.169 34.5406H48.8339C48.1249 37.435 46.7186 39.7201 44.6151 41.3959C42.5117 43.0462 39.9828 43.8714 37.0284 43.8714C34.6177 43.8714 32.4551 43.3001 30.5407 42.1576C28.65 40.9896 27.1728 39.3774 26.1093 37.3208C25.0457 35.2642 24.5139 32.9156 24.5139 30.2751Z" fill="#258E91"/>
<path d="M21.8353 43.8714C19.7743 43.8714 17.9273 43.5558 16.2945 42.9246C14.6617 42.2933 13.3501 41.3591 12.3597 40.122C11.3961 38.8848 10.8875 37.3951 10.834 35.6529H18.1415C18.2485 36.6376 18.6099 37.3951 19.2255 37.9253C19.8412 38.4303 20.6442 38.6828 21.6346 38.6828C22.6517 38.6828 23.4548 38.4682 24.0436 38.0389C24.6325 37.5845 24.927 36.9659 24.927 36.1832C24.927 35.5267 24.6861 34.9838 24.2042 34.5546C23.7492 34.1254 23.1737 33.7719 22.4778 33.4942C21.8086 33.2164 20.845 32.9008 19.5869 32.5473C17.7667 32.0171 16.2811 31.4869 15.1301 30.9567C13.9791 30.4264 12.9888 29.6437 12.159 28.6085C11.3292 27.5733 10.9143 26.2225 10.9143 24.5561C10.9143 22.0817 11.8645 20.1502 13.765 18.7615C15.6655 17.3476 18.1415 16.6406 21.1929 16.6406C24.2979 16.6406 26.8007 17.3476 28.7012 18.7615C30.6016 20.1502 31.6188 22.0944 31.7526 24.594H24.3247C24.2712 23.7355 23.9366 23.0664 23.3209 22.5867C22.7053 22.0817 21.9156 21.8292 20.952 21.8292C20.1222 21.8292 19.4531 22.0439 18.9445 22.4731C18.4359 22.8771 18.1816 23.4704 18.1816 24.2531C18.1816 25.1116 18.6099 25.7807 19.4664 26.2604C20.323 26.7401 21.6614 27.2577 23.4815 27.8132C25.3017 28.3939 26.7739 28.9494 27.8981 29.4796C29.0491 30.0098 30.0395 30.7799 30.8693 31.7899C31.6991 32.7998 32.114 34.1001 32.114 35.6908C32.114 37.2057 31.6991 38.5818 30.8693 39.819C30.0663 41.0562 28.8885 42.0409 27.336 42.7731C25.7835 43.5053 23.95 43.8714 21.8353 43.8714Z" fill="#05676A"/>
<path d="M71.9979 39.3335C70.7544 39.3335 69.64 39.1231 68.6549 38.7023C67.6698 38.2815 66.8784 37.6587 66.2809 36.8339C65.6995 36.0091 65.3927 35.016 65.3604 33.8546H69.7692C69.8338 34.511 70.0518 35.016 70.4233 35.3695C70.7947 35.7061 71.2792 35.8745 71.8768 35.8745C72.4904 35.8745 72.9749 35.7314 73.3302 35.4452C73.6855 35.1422 73.8632 34.7298 73.8632 34.208C73.8632 33.7704 73.7178 33.4085 73.4271 33.1223C73.1526 32.8362 72.8054 32.6005 72.3855 32.4154C71.9817 32.2302 71.4003 32.0198 70.6413 31.7842C69.5431 31.4307 68.6468 31.0772 67.9524 30.7237C67.2579 30.3702 66.6604 29.8484 66.1598 29.1583C65.6591 28.4682 65.4088 27.5676 65.4088 26.4567C65.4088 24.8071 65.9821 23.5194 67.1287 22.5936C68.2754 21.651 69.7692 21.1797 71.6103 21.1797C73.4837 21.1797 74.9937 21.651 76.1403 22.5936C77.2869 23.5194 77.9006 24.8155 77.9813 26.4819H73.4998C73.4675 25.9096 73.2656 25.4636 72.8942 25.1437C72.5227 24.8071 72.0463 24.6388 71.4649 24.6388C70.9643 24.6388 70.5606 24.7818 70.2537 25.068C69.9469 25.3373 69.7934 25.7329 69.7934 26.2547C69.7934 26.827 70.0518 27.2731 70.5686 27.5929C71.0854 27.9127 71.8929 28.2578 72.9911 28.6281C74.0893 29.0152 74.9775 29.3855 75.6558 29.739C76.3502 30.0925 76.9478 30.6059 77.4484 31.2792C77.949 31.9525 78.1994 32.8194 78.1994 33.8798C78.1994 34.8898 77.949 35.8071 77.4484 36.6319C76.9639 37.4567 76.2533 38.1132 75.3166 38.6013C74.38 39.0895 73.2737 39.3335 71.9979 39.3335Z" fill="#05676A"/>
<path d="M107.056 21.4322L102.623 39.1568H97.6089L94.8958 27.4919L92.0857 39.1568H87.0712L82.7593 21.4322H87.1924L89.639 34.3343L92.6671 21.4322H97.2213L100.128 34.3343L102.599 21.4322H107.056Z" fill="#05676A"/>
<path d="M116.183 21.4322V39.1568H112.041V21.4322H116.183Z" fill="#05676A"/>
<path d="M133.163 21.4322V24.8913H126.235V28.6281H131.419V31.9861H126.235V39.1568H122.092V21.4322H133.163Z" fill="#05676A"/>
<path d="M150.48 21.4322V24.8913H145.975V39.1568H141.832V24.8913H137.326V21.4322H150.48Z" fill="#05676A"/>
<path d="M156.56 30.2693C156.56 28.5089 156.905 26.9432 157.593 25.5722C158.282 24.1842 159.239 23.1093 160.463 22.3476C161.703 21.569 163.104 21.1797 164.665 21.1797C166.578 21.1797 168.216 21.7383 169.578 22.8554C170.941 23.9726 171.851 25.496 172.31 27.4256H167.994C167.673 26.6809 167.213 26.1138 166.617 25.7245C166.035 25.3352 165.369 25.1405 164.619 25.1405C163.41 25.1405 162.43 25.606 161.68 26.537C160.93 27.4679 160.555 28.7121 160.555 30.2693C160.555 31.8266 160.93 33.0707 161.68 34.0016C162.43 34.9326 163.41 35.3981 164.619 35.3981C165.369 35.3981 166.035 35.2034 166.617 34.8141C167.213 34.4248 167.673 33.8578 167.994 33.113H172.31C171.851 35.0426 170.941 36.566 169.578 37.6832C168.216 38.7834 166.578 39.3335 164.665 39.3335C163.104 39.3335 161.703 38.9527 160.463 38.191C159.239 37.4124 158.282 36.3375 157.593 34.9665C156.905 33.5954 156.56 32.0297 156.56 30.2693Z" fill="#258E91"/>
<path d="M187.503 36.0582H181.488L180.524 39.2066H176.414L182.245 21.3828H186.791L192.623 39.2066H188.467L187.503 36.0582ZM186.493 32.7067L184.496 26.1815L182.521 32.7067H186.493Z" fill="#258E91"/>
<path d="M205.373 39.2066L202.021 32.4782H201.079V39.2066H197.153V21.3828H203.743C205.013 21.3828 206.092 21.6282 206.98 22.1191C207.883 22.61 208.556 23.2871 209 24.1503C209.444 24.9966 209.666 25.9445 209.666 26.994C209.666 28.1789 209.36 29.2368 208.748 30.1677C208.151 31.0987 207.263 31.7589 206.084 32.1482L209.804 39.2066H205.373ZM201.079 29.406H203.513C204.232 29.406 204.768 29.2114 205.12 28.8221C205.487 28.4328 205.671 27.8826 205.671 27.1717C205.671 26.4947 205.487 25.9615 205.12 25.5722C204.768 25.1828 204.232 24.9882 203.513 24.9882H201.079V29.406Z" fill="#258E91"/>
<path d="M226.48 21.3828V24.8612H222.21V39.2066H218.284V24.8612H214.013V21.3828H226.48Z" fill="#258E91"/>
<path d="M240.812 21.4088C242.637 21.4088 244.214 21.7738 245.543 22.5037C246.888 23.2166 247.913 24.2435 248.618 25.5845C249.338 26.9254 249.698 28.504 249.698 30.3203C249.698 32.1365 249.338 33.7151 248.618 35.056C247.913 36.38 246.888 37.3985 245.543 38.1114C244.214 38.8073 242.637 39.1553 240.812 39.1553H235.6V21.4088H240.812ZM240.812 37.2457C242.974 37.2457 244.623 36.6431 245.76 35.438C246.896 34.2158 247.465 32.5099 247.465 30.3203C247.465 28.1136 246.888 26.3907 245.736 25.1516C244.599 23.9125 242.958 23.293 240.812 23.293H237.786V37.2457H240.812Z" fill="white"/>
<path d="M254.767 23.293V29.2254H260.867V31.135H254.767V37.2457H261.587V39.1553H252.581V21.3834H261.587V23.293H254.767Z" fill="white"/>
<path d="M270.202 39.3335C269.097 39.3335 268.105 39.1298 267.224 38.7225C266.36 38.2981 265.679 37.721 265.183 36.9911C264.686 36.2442 264.43 35.387 264.414 34.4195H266.744C266.824 35.2513 267.144 35.9557 267.704 36.5328C268.281 37.0929 269.113 37.373 270.202 37.373C271.243 37.373 272.06 37.1014 272.652 36.5583C273.26 35.9981 273.565 35.2852 273.565 34.4195C273.565 33.7406 273.388 33.1889 273.036 32.7645C272.684 32.3402 272.244 32.0177 271.715 31.797C271.187 31.5764 270.474 31.3387 269.578 31.0841C268.473 30.7786 267.584 30.473 266.912 30.1675C266.255 29.862 265.687 29.3867 265.207 28.7417C264.742 28.0797 264.51 27.197 264.51 26.0937C264.51 25.1262 264.742 24.269 265.207 23.5221C265.671 22.7753 266.319 22.1981 267.152 21.7908C268.001 21.3834 268.969 21.1797 270.058 21.1797C271.627 21.1797 272.908 21.5956 273.901 22.4273C274.91 23.259 275.478 24.3623 275.606 25.7372H273.204C273.124 25.0583 272.788 24.4642 272.196 23.955C271.603 23.4288 270.819 23.1657 269.842 23.1657C268.929 23.1657 268.185 23.4203 267.608 23.9295C267.032 24.4217 266.744 25.1177 266.744 26.0173C266.744 26.6623 266.912 27.1885 267.248 27.5959C267.6 28.0033 268.025 28.3173 268.521 28.538C269.033 28.7417 269.746 28.9793 270.659 29.2509C271.763 29.5734 272.652 29.8959 273.324 30.2184C273.997 30.524 274.573 31.0077 275.054 31.6697C275.534 32.3147 275.774 33.1974 275.774 34.3177C275.774 35.1834 275.558 35.9981 275.126 36.762C274.693 37.5258 274.053 38.1453 273.204 38.6206C272.356 39.0959 271.355 39.3335 270.202 39.3335Z" fill="white"/>
<path d="M281.176 21.4088V39.1553H278.99V21.4088H281.176Z" fill="white"/>
<path d="M297.582 26.552C297.117 25.5166 296.445 24.7188 295.564 24.1586C294.684 23.5815 293.659 23.293 292.49 23.293C291.321 23.293 290.265 23.5815 289.32 24.1586C288.391 24.7188 287.655 25.5336 287.11 26.6029C286.582 27.6553 286.318 28.8775 286.318 30.2693C286.318 31.6612 286.582 32.8834 287.11 33.9358C287.655 34.9882 288.391 35.8029 289.32 36.38C290.265 36.9402 291.321 37.2203 292.49 37.2203C294.123 37.2203 295.468 36.7025 296.525 35.6671C297.582 34.6317 298.198 33.2313 298.374 31.466H291.698V29.5819H300.704V31.3642C300.576 32.8239 300.144 34.1649 299.407 35.387C298.671 36.5922 297.702 37.5512 296.501 38.2642C295.3 38.9601 293.963 39.3081 292.49 39.3081C290.937 39.3081 289.52 38.9262 288.239 38.1623C286.958 37.3815 285.942 36.3036 285.189 34.9287C284.452 33.5538 284.084 32.0007 284.084 30.2693C284.084 28.538 284.452 26.9848 285.189 25.6099C285.942 24.2181 286.958 23.1402 288.239 22.3764C289.52 21.5956 290.937 21.2051 292.49 21.2051C294.267 21.2051 295.837 21.6719 297.198 22.6055C298.574 23.5391 299.575 24.8546 300.2 26.552H297.582Z" fill="white"/>
<path d="M316.755 39.1553H314.569L305.779 25.0243V39.1553H303.594V21.3834H305.779L314.569 35.4889V21.3834H316.755V39.1553Z" fill="white"/>
<path d="M325.788 39.3335C324.684 39.3335 323.691 39.1298 322.81 38.7225C321.946 38.2981 321.265 37.721 320.769 36.9911C320.272 36.2442 320.016 35.387 320 34.4195H322.33C322.41 35.2513 322.73 35.9557 323.291 36.5328C323.867 37.0929 324.7 37.373 325.788 37.373C326.829 37.373 327.646 37.1014 328.238 36.5583C328.847 35.9981 329.151 35.2852 329.151 34.4195C329.151 33.7406 328.975 33.1889 328.622 32.7645C328.27 32.3402 327.83 32.0177 327.301 31.797C326.773 31.5764 326.061 31.3387 325.164 31.0841C324.059 30.7786 323.171 30.473 322.498 30.1675C321.842 29.862 321.273 29.3867 320.793 28.7417C320.329 28.0797 320.096 27.197 320.096 26.0937C320.096 25.1262 320.329 24.269 320.793 23.5221C321.257 22.7753 321.906 22.1981 322.738 21.7908C323.587 21.3834 324.556 21.1797 325.644 21.1797C327.213 21.1797 328.494 21.5956 329.487 22.4273C330.496 23.259 331.064 24.3623 331.192 25.7372H328.791C328.71 25.0583 328.374 24.4642 327.782 23.955C327.189 23.4288 326.405 23.1657 325.428 23.1657C324.516 23.1657 323.771 23.4203 323.195 23.9295C322.618 24.4217 322.33 25.1177 322.33 26.0173C322.33 26.6623 322.498 27.1885 322.834 27.5959C323.187 28.0033 323.611 28.3173 324.107 28.538C324.62 28.7417 325.332 28.9793 326.245 29.2509C327.35 29.5734 328.238 29.8959 328.911 30.2184C329.583 30.524 330.159 31.0077 330.64 31.6697C331.12 32.3147 331.36 33.1974 331.36 34.3177C331.36 35.1834 331.144 35.9981 330.712 36.762C330.28 37.5258 329.639 38.1453 328.791 38.6206C327.942 39.0959 326.941 39.3335 325.788 39.3335Z" fill="white"/>
</svg>
