<svg width="288" height="50" viewBox="0 0 288 50" fill="none" xmlns="http://www.w3.org/2000/svg">
<rect x="4.51367" y="5.00293" width="1.36168" height="1.36967" fill="white" stroke="white"/>
<rect x="4.75" y="44.3389" width="1.36168" height="1.36967" fill="white" stroke="white"/>
<rect x="43.7188" y="5.00293" width="1.36168" height="1.36967" fill="white" stroke="white"/>
<rect x="43.9531" y="44.3389" width="1.36168" height="1.36967" fill="white" stroke="white"/>
<path d="M44.8711 2.49995L44.3988 2.49995L44.3988 -2.07163e-08L44.8711 0L44.8711 2.49995ZM44.8711 12.5L44.3988 12.5L44.3988 7.50009L44.8711 7.50009L44.8711 12.5ZM44.8711 22.5L44.3988 22.5L44.3988 17.4999L44.8711 17.4999L44.8711 22.5ZM44.8711 32.5001L44.3988 32.5001L44.3988 27.5L44.8711 27.5L44.8711 32.5001ZM44.8711 42.4999L44.3988 42.4999L44.3988 37.5L44.8711 37.5L44.8711 42.4999ZM44.8711 50L44.3988 50L44.3988 47.5L44.8711 47.5L44.8711 50Z" fill="white"/>
<path d="M5.66797 2.49995L5.19563 2.49995L5.19563 -2.07163e-08L5.66797 0L5.66797 2.49995ZM5.66797 12.5L5.19563 12.5L5.19563 7.50009L5.66797 7.50009L5.66797 12.5ZM5.66797 22.5L5.19563 22.5L5.19563 17.4999L5.66797 17.4999L5.66797 22.5ZM5.66797 32.5001L5.19563 32.5001L5.19563 27.5L5.66797 27.5L5.66797 32.5001ZM5.66797 42.4999L5.19563 42.4999L5.19563 37.5L5.66797 37.5L5.66797 42.4999ZM5.66797 50L5.19563 50L5.19563 47.5L5.66797 47.5L5.66797 50Z" fill="white"/>
<path d="M47.3405 6.16113L47.3405 5.6872L49.832 5.6872L49.832 6.16113L47.3405 6.16113ZM37.3742 6.16113L37.3742 5.6872L42.3572 5.6872L42.3572 6.16113L37.3742 6.16113ZM27.4078 6.16113L27.4078 5.6872L32.3911 5.6872L32.3911 6.16113L27.4078 6.16113ZM17.4415 6.16113L17.4415 5.6872L22.4248 5.6872L22.4248 6.16113L17.4415 6.16113ZM7.4754 6.16113L7.4754 5.6872L12.4585 5.6872L12.4585 6.16113L7.4754 6.16113ZM0.000595093 6.16113L0.000595134 5.68719L2.49212 5.6872L2.49212 6.16113L0.000595093 6.16113Z" fill="white"/>
<path d="M47.3405 45.4971L47.3405 45.0231L49.832 45.0231L49.832 45.4971L47.3405 45.4971ZM37.3742 45.4971L37.3742 45.0231L42.3572 45.0231L42.3572 45.4971L37.3742 45.4971ZM27.4078 45.4971L27.4078 45.0231L32.3911 45.0231L32.3911 45.4971L27.4078 45.4971ZM17.4415 45.4971L17.4415 45.0231L22.4248 45.0231L22.4248 45.4971L17.4415 45.4971ZM7.4754 45.4971L7.4754 45.0231L12.4585 45.0231L12.4585 45.4971L7.4754 45.4971ZM0.000595093 45.4971L0.000595134 45.0231L2.49212 45.0231L2.49212 45.4971L0.000595093 45.4971Z" fill="white"/>
<path d="M20.6426 25.6571C20.6426 23.4194 21.0904 21.4291 21.986 19.6862C22.8816 17.9218 24.1256 16.5555 25.7178 15.5872C27.3299 14.5974 29.151 14.1025 31.1811 14.1025C33.669 14.1025 35.7986 14.8126 37.5699 16.2327C39.3413 17.6528 40.5255 19.5894 41.1226 22.0423H35.51C35.092 21.0955 34.4949 20.3747 33.7187 19.8798C32.9624 19.3849 32.0966 19.1375 31.1214 19.1375C29.5491 19.1375 28.2753 19.7292 27.3001 20.9127C26.3248 22.0961 25.8372 23.6776 25.8372 25.6571C25.8372 27.6367 26.3248 29.2182 27.3001 30.4016C28.2753 31.5851 29.5491 32.1768 31.1214 32.1768C32.0966 32.1768 32.9624 31.9293 33.7187 31.4344C34.4949 30.9395 35.092 30.2187 35.51 29.272H41.1226C40.5255 31.7249 39.3413 33.6614 37.5699 35.0816C35.7986 36.4802 33.669 37.1795 31.1811 37.1795C29.151 37.1795 27.3299 36.6953 25.7178 35.7271C24.1256 34.7373 22.8816 33.371 21.986 31.6281C21.0904 29.8852 20.6426 27.8949 20.6426 25.6571Z" fill="#258E91"/>
<path d="M18.3873 37.1795C16.6517 37.1795 15.0964 36.912 13.7214 36.3771C12.3464 35.8421 11.2419 35.0504 10.4079 34.002C9.59641 32.9535 9.16813 31.6911 9.12305 30.2147H15.2767C15.3669 31.0492 15.6712 31.6911 16.1896 32.1404C16.7081 32.5684 17.3843 32.7823 18.2183 32.7823C19.0748 32.7823 19.7511 32.6005 20.247 32.2367C20.7429 31.8516 20.9908 31.3273 20.9908 30.664C20.9908 30.1077 20.788 29.6476 20.3822 29.2839C19.999 28.9201 19.5144 28.6206 18.9283 28.3852C18.3648 28.1498 17.5533 27.8824 16.4939 27.5828C14.9611 27.1335 13.7101 26.6841 12.7409 26.2348C11.7716 25.7854 10.9376 25.1221 10.2388 24.2448C9.54005 23.3675 9.19067 22.2228 9.19067 20.8106C9.19067 18.7136 9.99087 17.0768 11.5913 15.8999C13.1917 14.7017 15.2767 14.1025 17.8464 14.1025C20.4611 14.1025 22.5687 14.7017 24.1691 15.8999C25.7695 17.0768 26.626 18.7243 26.7387 20.8427H20.4837C20.4386 20.1152 20.1568 19.5481 19.6384 19.1416C19.1199 18.7136 18.455 18.4997 17.6435 18.4997C16.9447 18.4997 16.3812 18.6815 15.9529 19.0453C15.5247 19.3877 15.3105 19.8905 15.3105 20.5538C15.3105 21.2813 15.6712 21.8483 16.3925 22.2549C17.1138 22.6614 18.2408 23.1001 19.7736 23.5708C21.3064 24.063 22.5461 24.5337 23.4929 24.983C24.4621 25.4324 25.2961 26.085 25.9949 26.9409C26.6937 27.7968 27.043 28.8987 27.043 30.2468C27.043 31.5306 26.6937 32.6967 25.9949 33.7452C25.3187 34.7937 24.3269 35.6282 23.0195 36.2487C21.7121 36.8692 20.1681 37.1795 18.3873 37.1795Z" fill="#05676A"/>
<path d="M60.6286 33.3329C59.5814 33.3329 58.643 33.1545 57.8134 32.7979C56.9838 32.4413 56.3174 31.9135 55.8142 31.2145C55.3247 30.5156 55.0663 29.6739 55.0391 28.6897H58.7518C58.8062 29.246 58.9898 29.6739 59.3026 29.9735C59.6154 30.2588 60.0234 30.4014 60.5266 30.4014C61.0434 30.4014 61.4513 30.2802 61.7505 30.0377C62.0497 29.7809 62.1993 29.4314 62.1993 28.9892C62.1993 28.6183 62.0769 28.3116 61.8321 28.0691C61.6009 27.8266 61.3085 27.6269 60.955 27.47C60.615 27.3131 60.1254 27.1348 59.4862 26.9351C58.5614 26.6355 57.8066 26.336 57.2218 26.0364C56.637 25.7368 56.1338 25.2946 55.7123 24.7098C55.2907 24.1249 55.0799 23.3617 55.0799 22.4203C55.0799 21.0223 55.5627 19.9311 56.5282 19.1465C57.4938 18.3477 58.7518 17.9482 60.3022 17.9482C61.8797 17.9482 63.1513 18.3477 64.1169 19.1465C65.0825 19.9311 65.5993 21.0294 65.6673 22.4417H61.8933C61.8661 21.9567 61.6961 21.5786 61.3833 21.3076C61.0706 21.0223 60.6694 20.8797 60.1798 20.8797C59.7582 20.8797 59.4182 21.0009 59.1598 21.2434C58.9014 21.4717 58.7722 21.8069 58.7722 22.2491C58.7722 22.7341 58.9898 23.1121 59.425 23.3831C59.8602 23.6542 60.5402 23.9466 61.4649 24.2604C62.3897 24.5885 63.1377 24.9023 63.7089 25.2019C64.2937 25.5015 64.7969 25.9365 65.2185 26.5071C65.6401 27.0777 65.8509 27.8124 65.8509 28.7111C65.8509 29.5669 65.6401 30.3444 65.2185 31.0434C64.8105 31.7423 64.2121 32.2987 63.4233 32.7123C62.6345 33.126 61.7029 33.3329 60.6286 33.3329Z" fill="#05676A"/>
<path d="M90.1516 18.1622L86.4185 33.1831H82.1958L79.911 23.2976L77.5446 33.1831H73.3219L69.6908 18.1622H73.4239L75.4843 29.0962L78.0342 18.1622H81.8694L84.3173 29.0962L86.3981 18.1622H90.1516Z" fill="#05676A"/>
<path d="M97.8373 18.1622V33.1831H94.349V18.1622H97.8373Z" fill="#05676A"/>
<path d="M112.136 18.1622V21.0936H106.302V24.2604H110.667V27.1063H106.302V33.1831H102.813V18.1622H112.136Z" fill="#05676A"/>
<path d="M126.719 18.1622V21.0936H122.925V33.1831H119.436V21.0936H115.642V18.1622H126.719Z" fill="#05676A"/>
<path d="M131.84 25.6513C131.84 24.1595 132.13 22.8326 132.71 21.6707C133.29 20.4944 134.096 19.5835 135.127 18.938C136.171 18.2782 137.35 17.9482 138.665 17.9482C140.276 17.9482 141.655 18.4216 142.802 19.3684C143.95 20.3151 144.716 21.6061 145.103 23.2414H141.468C141.198 22.6102 140.811 22.1297 140.308 21.7998C139.818 21.4698 139.258 21.3049 138.626 21.3049C137.608 21.3049 136.783 21.6994 136.151 22.4883C135.52 23.2773 135.204 24.3316 135.204 25.6513C135.204 26.971 135.52 28.0253 136.151 28.8143C136.783 29.6033 137.608 29.9977 138.626 29.9977C139.258 29.9977 139.818 29.8328 140.308 29.5028C140.811 29.1729 141.198 28.6924 141.468 28.0612H145.103C144.716 29.6965 143.95 30.9875 142.802 31.9343C141.655 32.8667 140.276 33.3329 138.665 33.3329C137.35 33.3329 136.171 33.0101 135.127 32.3646C134.096 31.7047 133.29 30.7939 132.71 29.6319C132.13 28.47 131.84 27.1432 131.84 25.6513Z" fill="#258E91"/>
<path d="M157.897 30.5572H152.831L152.019 33.2253H148.559L153.469 18.1204H157.298L162.209 33.2253H158.709L157.897 30.5572ZM157.046 27.7169L155.364 22.1871L153.701 27.7169H157.046Z" fill="#258E91"/>
<path d="M172.945 33.2253L170.122 27.5233H169.329V33.2253H166.023V18.1204H171.572C172.642 18.1204 173.551 18.3284 174.298 18.7444C175.059 19.1604 175.626 19.7341 176 20.4657C176.374 21.183 176.561 21.9863 176.561 22.8756C176.561 23.8797 176.303 24.7763 175.787 25.5652C175.284 26.3542 174.537 26.9136 173.544 27.2436L176.677 33.2253H172.945ZM169.329 24.9197H171.379C171.985 24.9197 172.436 24.7548 172.732 24.4248C173.042 24.0949 173.196 23.6287 173.196 23.0262C173.196 22.4525 173.042 22.0006 172.732 21.6707C172.436 21.3407 171.985 21.1758 171.379 21.1758H169.329V24.9197Z" fill="#258E91"/>
<path d="M190.72 18.1204V21.0682H187.124V33.2253H183.818V21.0682H180.221V18.1204H190.72Z" fill="#258E91"/>
<path d="M202.787 18.1424C204.324 18.1424 205.652 18.4517 206.772 19.0703C207.904 19.6744 208.767 20.5447 209.36 21.6811C209.967 22.8175 210.27 24.1553 210.27 25.6945C210.27 27.2337 209.967 28.5715 209.36 29.7079C208.767 30.8299 207.904 31.693 206.772 32.2971C205.652 32.8869 204.324 33.1818 202.787 33.1818H198.398V18.1424H202.787ZM202.787 31.5635C204.607 31.5635 205.996 31.0529 206.954 30.0315C207.911 28.9958 208.389 27.5501 208.389 25.6945C208.389 23.8245 207.904 22.3644 206.933 21.3143C205.976 20.2642 204.594 19.7392 202.787 19.7392H200.239V31.5635H202.787Z" fill="white"/>
<path d="M214.538 19.7392V24.7667H219.676V26.385H214.538V31.5635H220.282V33.1818H212.698V18.1209H220.282V19.7392H214.538Z" fill="white"/>
<path d="M227.537 33.3329C226.607 33.3329 225.771 33.1602 225.029 32.815C224.301 32.4554 223.728 31.9663 223.31 31.3477C222.892 30.7148 222.676 29.9884 222.663 29.1684H224.625C224.692 29.8733 224.962 30.4703 225.433 30.9594C225.919 31.4341 226.62 31.6714 227.537 31.6714C228.413 31.6714 229.101 31.4412 229.6 30.9809C230.112 30.5062 230.368 29.9021 230.368 29.1684C230.368 28.593 230.22 28.1255 229.923 27.7659C229.627 27.4063 229.256 27.133 228.811 26.946C228.366 26.759 227.766 26.5576 227.011 26.3418C226.081 26.0829 225.332 25.824 224.766 25.565C224.213 25.3061 223.735 24.9033 223.33 24.3567C222.939 23.7957 222.744 23.0477 222.744 22.1127C222.744 21.2927 222.939 20.5663 223.33 19.9334C223.721 19.3004 224.267 18.8113 224.968 18.4661C225.683 18.1209 226.499 17.9482 227.416 17.9482C228.737 17.9482 229.816 18.3007 230.651 19.0055C231.501 19.7104 231.98 20.6454 232.087 21.8106H230.065C229.998 21.2352 229.714 20.7317 229.216 20.3002C228.717 19.8542 228.056 19.6313 227.234 19.6313C226.465 19.6313 225.838 19.847 225.353 20.2786C224.867 20.6958 224.625 21.2855 224.625 22.0479C224.625 22.5946 224.766 23.0405 225.049 23.3857C225.346 23.731 225.703 23.9971 226.121 24.1841C226.553 24.3567 227.153 24.5581 227.921 24.7882C228.851 25.0616 229.6 25.3349 230.166 25.6082C230.732 25.8671 231.218 26.2771 231.622 26.8381C232.027 27.3847 232.229 28.1327 232.229 29.0821C232.229 29.8158 232.047 30.5062 231.683 31.1535C231.319 31.8009 230.78 32.3259 230.065 32.7287C229.35 33.1315 228.508 33.3329 227.537 33.3329Z" fill="white"/>
<path d="M236.778 18.1424V33.1818H234.937V18.1424H236.778Z" fill="white"/>
<path d="M250.593 22.5011C250.202 21.6236 249.636 20.9475 248.894 20.4728C248.153 19.9837 247.29 19.7392 246.306 19.7392C245.321 19.7392 244.431 19.9837 243.636 20.4728C242.854 20.9475 242.234 21.638 241.775 22.5442C241.33 23.4361 241.108 24.4718 241.108 25.6513C241.108 26.8309 241.33 27.8666 241.775 28.7585C242.234 29.6503 242.854 30.3408 243.636 30.8299C244.431 31.3046 245.321 31.5419 246.306 31.5419C247.681 31.5419 248.814 31.1032 249.703 30.2257C250.593 29.3482 251.112 28.1615 251.261 26.6655H245.638V25.0688H253.223V26.5792C253.115 27.8163 252.751 28.9527 252.13 29.9884C251.51 31.0097 250.694 31.8224 249.683 32.4266C248.672 33.0164 247.546 33.3113 246.306 33.3113C244.998 33.3113 243.805 32.9876 242.726 32.3403C241.647 31.6786 240.791 30.7652 240.157 29.6C239.537 28.4348 239.227 27.1186 239.227 25.6513C239.227 24.1841 239.537 22.8679 240.157 21.7027C240.791 20.5231 241.647 19.6097 242.726 18.9624C243.805 18.3007 244.998 17.9698 246.306 17.9698C247.802 17.9698 249.124 18.3654 250.27 19.1566C251.429 19.9477 252.272 21.0626 252.798 22.5011H250.593Z" fill="white"/>
<path d="M266.739 33.1818H264.899L257.496 21.2064V33.1818H255.656V18.1209H257.496L264.899 30.0747V18.1209H266.739V33.1818Z" fill="white"/>
<path d="M274.346 33.3329C273.416 33.3329 272.58 33.1602 271.838 32.815C271.11 32.4554 270.537 31.9663 270.119 31.3477C269.701 30.7148 269.486 29.9884 269.472 29.1684H271.434C271.501 29.8733 271.771 30.4703 272.243 30.9594C272.728 31.4341 273.429 31.6714 274.346 31.6714C275.223 31.6714 275.91 31.4412 276.409 30.9809C276.922 30.5062 277.178 29.9021 277.178 29.1684C277.178 28.593 277.029 28.1255 276.733 27.7659C276.436 27.4063 276.065 27.133 275.62 26.946C275.175 26.759 274.575 26.5576 273.82 26.3418C272.89 26.0829 272.142 25.824 271.575 25.565C271.023 25.3061 270.544 24.9033 270.14 24.3567C269.748 23.7957 269.553 23.0477 269.553 22.1127C269.553 21.2927 269.748 20.5663 270.14 19.9334C270.531 19.3004 271.077 18.8113 271.778 18.4661C272.492 18.1209 273.308 17.9482 274.225 17.9482C275.546 17.9482 276.625 18.3007 277.461 19.0055C278.31 19.7104 278.789 20.6454 278.897 21.8106H276.874C276.807 21.2352 276.524 20.7317 276.025 20.3002C275.526 19.8542 274.865 19.6313 274.043 19.6313C273.274 19.6313 272.647 19.847 272.162 20.2786C271.677 20.6958 271.434 21.2855 271.434 22.0479C271.434 22.5946 271.575 23.0405 271.859 23.3857C272.155 23.731 272.513 23.9971 272.931 24.1841C273.362 24.3567 273.962 24.5581 274.731 24.7882C275.661 25.0616 276.409 25.3349 276.976 25.6082C277.542 25.8671 278.027 26.2771 278.432 26.8381C278.836 27.3847 279.038 28.1327 279.038 29.0821C279.038 29.8158 278.856 30.5062 278.492 31.1535C278.128 31.8009 277.589 32.3259 276.874 32.7287C276.16 33.1315 275.317 33.3329 274.346 33.3329Z" fill="white"/>
</svg>
